#!OML:ASF E:\VariousWalksJay\Project 1\Capture day 1\Session 1\Actor2.ASF
:FULLY-SPECIFIED
:DEGREES
936
root 10.0206 11.1801 47.7471 200.368 -38.4786 -179.978
lowerback 48.8863 4.92701 -0.476378
upperback 15.9478 0.470867 -2.10739
thorax -2.62193 -1.42802 -2.11674
lowerneck -0.721987 -1.84568 -11.0753
upperneck -31.9573 -2.18099 13.3692
head -9.57098 -2.39683 7.18276
rclavicle -2.70347e-014 -4.18069e-014
rhumerus 48.1982 16.6856 -51.9035
rradius 25.1504
rwrist -1.02065
rhand -16.5291 -7.09846
rfingers 7.12502
rthumb 9.6897 -36.8556
lclavicle -2.70347e-014 -4.18069e-014
lhumerus 68.4629 -5.23569 66.6892
lradius 66.8871
lwrist -6.0175
lhand -45.3547 -46.4256
lfingers 7.12502
lthumb -18.1249 -17.25
rfemur -89.7739 -36.8164 11.1037
rtibia 89.745
rfoot -16.7252 -20.1753
rtoes -42.9246
lfemur -89.3076 36.5128 -13.6197
ltibia 83.3342
lfoot -12.9316 -3.39659
ltoes -31.9438
937
root 10.0183 11.1419 47.7824 200.263 -39.0718 -179.635
lowerback 48.9988 4.80325 -0.50666
upperback 15.9792 0.292902 -2.22357
thorax -2.60942 -1.50388 -2.16133
lowerneck -0.737934 -1.99127 -11.1926
upperneck -31.9377 -2.19523 14.1785
head -9.5239 -2.48655 7.50795
rclavicle 1.23246e-014 -6.41081e-015
rhumerus 48.383 17.1652 -51.7323
rradius 25.0648
rwrist -0.684079
rhand -16.8059 -7.25889
rfingers 7.12502
rthumb 9.42266 -37.0283
lclavicle 1.23246e-014 -6.41081e-015
lhumerus 68.2475 -6.04554 66.9541
lradius 64.7856
lwrist -5.47652
lhand -45.4555 -45.9555
lfingers 7.12502
lthumb -18.2219 -16.789
rfemur -90.0267 -37.0996 11.5395
rtibia 91.1264
rfoot -15.7217 -19.6879
rtoes -42.8885
lfemur -90.3195 36.563 -13.9366
ltibia 83.6697
lfoot -12.9382 -3.586
ltoes -31.6171
938
root 10.0215 11.0994 47.808 200.225 -39.5996 -179.447
lowerback 49.1716 4.78038 -0.588094
upperback 15.9299 0.223461 -2.40349
thorax -2.69126 -1.51942 -2.28907
lowerneck -0.633899 -2.18812 -11.1086
upperneck -31.8986 -2.27441 14.9589
head -9.48458 -2.62324 7.79067
rclavicle -7.71285e-014 -4.86774e-014
rhumerus 48.2136 17.4361 -51.6613
rradius 25.0732
rwrist -0.567701
rhand -16.761 -7.13576
rfingers 7.12502
rthumb 9.46598 -36.9032
lclavicle -7.71285e-014 -4.86774e-014
lhumerus 68.0821 -7.14688 67.3147
lradius 62.5113
lwrist -4.47983
lhand -45.2737 -45.4427
lfingers 7.12502
lthumb -18.047 -16.26
rfemur -90.3991 -37.4315 12.0526
rtibia 92.8584
rfoot -14.7599 -19.0308
rtoes -42.469
lfemur -91.3268 36.6519 -14.3876
ltibia 84.0344
lfoot -12.9341 -3.83824
ltoes -31.3045
939
root 10.0253 11.0518 47.8273 199.996 -40.3336 -179.118
lowerback 49.1407 4.68563 -0.549249
upperback 16.0885 0.109703 -2.41144
thorax -2.51599 -1.5746 -2.27732
lowerneck -0.464557 -2.33965 -11.1744
upperneck -32.0147 -2.3285 15.6734
head -9.51992 -2.7345 8.09574
rclavicle -2.78299e-014 8.39865e-015
rhumerus 48.2982 17.5652 -51.5435
rradius 25.1773
rwrist -0.638094
rhand -16.3368 -6.99775
rfingers 7.12502
rthumb 9.8752 -36.7462
lclavicle -2.78299e-014 8.39865e-015
lhumerus 67.8993 -7.82561 66.9344
lradius 60.1533
lwrist -2.80192
lhand -45.4647 -45.4374
lfingers 7.12502
lthumb -18.2308 -16.2718
rfemur -90.6466 -37.949 12.8957
rtibia 94.7858
rfoot -14.0017 -18.7549
rtoes -42.1728
lfemur -92.2212 36.618 -14.6665
ltibia 84.3687
lfoot -13.0295 -3.86359
ltoes -31.8834
940
root 10.0343 10.9998 47.8389 199.948 -41.0104 -179.103
lowerback 49.138 4.61841 -0.577482
upperback 16.1964 0.0011399 -2.53949
thorax -2.40186 -1.61645 -2.3636
lowerneck -0.296243 -2.51647 -11.054
upperneck -32.08 -2.42069 16.2974
head -9.53585 -2.87139 8.32931
rclavicle 6.08281e-014 2.18763e-013
rhumerus 48.0993 17.5744 -51.706
rradius 25.2459
rwrist -0.422027
rhand -15.694 -6.61388
rfingers 7.12502
rthumb 10.4953 -36.3319
lclavicle 6.08281e-014 2.18763e-013
lhumerus 67.9379 -8.72719 66.556
lradius 57.7031
lwrist -1.09751
lhand -45.293 -44.6588
lfingers 7.12502
lthumb -18.0656 -15.4777
rfemur -90.9717 -38.5789 13.7689
rtibia 96.9013
rfoot -13.4181 -18.7777
rtoes -42.0275
lfemur -93.1177 36.5328 -15.1168
ltibia 84.7472
lfoot -13.0756 -4.07439
ltoes -31.8857
941
root 10.051 10.9444 47.85 199.969 -41.5751 -179.289
lowerback 49.3162 4.55212 -0.769219
upperback 16.1984 -0.186336 -2.72362
thorax -2.43306 -1.69872 -2.4016
lowerneck -0.123412 -2.67638 -11.0797
upperneck -32.0539 -2.49536 16.9484
head -9.51717 -2.97977 8.59133
rclavicle -5.56597e-014 -6.01324e-014
rhumerus 47.8928 17.84 -51.6284
rradius 25.5208
rwrist -0.622563
rhand -14.3966 -6.06174
rfingers 7.12502
rthumb 11.7467 -35.7124
lclavicle -5.56597e-014 -6.01324e-014
lhumerus 67.782 -9.48148 66.1976
lradius 55.3248
lwrist 0.383645
lhand -44.4919 -43.7509
lfingers 7.12502
lthumb -17.2947 -14.5004
rfemur -91.291 -39.1567 14.6236
rtibia 99.0472
rfoot -12.9302 -18.8895
rtoes -41.5007
lfemur -93.8362 36.4012 -15.5938
ltibia 85.0846
lfoot -13.1347 -4.07041
ltoes -32.0756
942
root 10.0621 10.8801 47.8559 200.103 -42.33 -179.398
lowerback 49.2607 4.23908 -0.632314
upperback 16.1869 -0.468378 -2.98112
thorax -2.45617 -1.78961 -2.63451
lowerneck 0.0857292 -2.81525 -11.1714
upperneck -31.9933 -2.53324 17.6457
head -9.49504 -3.06439 8.88145
rclavicle -8.5875e-014 4.13969e-014
rhumerus 47.6147 18.3699 -51.109
rradius 26.0532
rwrist -1.43338
rhand -16.4911 -7.54651
rfingers 7.12502
rthumb 9.7264 -37.3019
lclavicle -8.5875e-014 4.13969e-014
lhumerus 67.4479 -10.1624 65.9444
lradius 52.9643
lwrist 0.693665
lhand -44.004 -42.5797
lfingers 7.12502
lthumb -16.8251 -13.2886
rfemur -91.6797 -39.9114 15.765
rtibia 101.018
rfoot -12.8863 -18.9175
rtoes -40.8832
lfemur -94.8331 36.1246 -16.1069
ltibia 85.4454
lfoot -13.1433 -4.07592
ltoes -32.1693
943
root 10.0794 10.8183 47.8536 200.299 -42.9006 -179.843
lowerback 49.3368 4.16349 -0.770904
upperback 16.2331 -0.640747 -3.22043
thorax -2.428 -1.85612 -2.76291
lowerneck 0.226534 -2.99911 -11.1613
upperneck -31.9577 -2.64142 18.2799
head -9.46075 -3.18993 9.13119
rclavicle -2.74323e-014 -3.06128e-014
rhumerus 47.2601 18.4747 -51.5549
rradius 26.1791
rwrist -1.35374
rhand -16.6377 -7.9151
rfingers 7.12502
rthumb 9.58491 -37.6771
lclavicle -2.74323e-014 -3.06128e-014
lhumerus 67.2627 -10.9719 65.6234
lradius 50.539
lwrist 0.904319
lhand -43.525 -41.8534
lfingers 7.12502
lthumb -16.3639 -12.5237
rfemur -91.5189 -40.4401 16.2659
rtibia 102.569
rfoot -13.6166 -18.9024
rtoes -40.1132
lfemur -95.5447 35.9296 -16.7927
ltibia 85.7548
lfoot -13.2013 -4.05923
ltoes -32.6523
944
root 10.1029 10.7689 47.8542 200.721 -43.3839 -180.627
lowerback 49.4417 4.14288 -1.11093
upperback 16.2503 -0.838631 -3.44652
thorax -2.43468 -1.94519 -2.77316
lowerneck 0.437209 -3.15871 -11.1524
upperneck -31.9581 -2.74861 18.7877
head -9.45854 -3.30165 9.34003
rclavicle -2.22639e-014 7.98617e-014
rhumerus 46.9565 18.8591 -50.9366
rradius 26.6793
rwrist -2.24194
rhand -16.3785 -8.08086
rfingers 7.12502
rthumb 9.83503 -37.8312
lclavicle -2.22639e-014 7.98617e-014
lhumerus 66.9128 -11.6805 65.4282
lradius 48.2313
lwrist 0.640661
lhand -43.1957 -41.3361
lfingers 7.12502
lthumb -16.0468 -11.9806
rfemur -90.9779 -40.6893 15.8135
rtibia 103.477
rfoot -16.0021 -20.144
rtoes -39.2661
lfemur -96.0228 35.6051 -17.5686
ltibia 86.0026
lfoot -13.2611 -4.21616
ltoes -32.4475
945
root 10.1267 10.7294 47.8566 201.101 -43.9568 -181.136
lowerback 49.3987 3.94645 -1.05742
upperback 16.2432 -1.0271 -3.70076
thorax -2.4554 -1.99779 -2.99879
lowerneck 0.617397 -3.32419 -11.1509
upperneck -31.891 -2.86955 19.2601
head -9.42345 -3.40812 9.52718
rclavicle -8.50798e-014 -1.7334e-013
rhumerus 46.3936 19.1004 -50.9572
rradius 27.0912
rwrist -2.61938
rhand -16.0494 -8.25245
rfingers 7.12502
rthumb 10.1525 -37.9875
lclavicle -8.50798e-014 -1.7334e-013
lhumerus 66.505 -12.4615 65.2426
lradius 45.9789
lwrist 0.191021
lhand -42.6978 -40.781
lfingers 7.12502
lthumb -15.5673 -11.3875
rfemur -90.1091 -40.4575 14.453
rtibia 103.687
rfoot -17.6759 -21.2473
rtoes -35.7135
lfemur -96.6099 35.2139 -18.1675
ltibia 86.1604
lfoot -13.2891 -4.35264
ltoes -32.5144
946
root 10.1466 10.6728 47.8553 201.53 -44.3023 -181.928
lowerback 49.547 3.85369 -1.22465
upperback 16.1977 -1.23294 -4.01968
thorax -2.54516 -2.07224 -3.18343
lowerneck 0.680549 -3.48437 -11.1228
upperneck -31.6513 -2.99523 19.6634
head -9.30417 -3.49903 9.65461
rclavicle 1.36366e-013 -2.9768e-014
rhumerus 46.088 19.7025 -50.1737
rradius 27.6231
rwrist -3.79536
rhand -15.628 -8.45866
rfingers 7.12502
rthumb 10.559 -38.1734
lclavicle 1.36366e-013 -2.9768e-014
lhumerus 65.9456 -13.1778 64.8762
lradius 43.9481
lwrist -0.035326
lhand -42.3769 -39.9341
lfingers 7.12502
lthumb -15.2582 -10.5168
rfemur -89.2894 -40.2279 12.5221
rtibia 103.635
rfoot -17.6404 -21.1596
rtoes -34.6558
lfemur -97.0406 34.9504 -18.8436
ltibia 86.4501
lfoot -13.2812 -4.53333
ltoes -32.2178
